<?xml version="1.0" standalone="no"?><svg xmlns="http://www.w3.org/2000/svg" viewBox="0 0 1440 320"><path fill="#282a35" fill-opacity="1" d="M0,128L24,154.7C48,181,96,235,144,218.7C192,203,240,117,288,117.3C336,117,384,203,432,213.3C480,224,528,160,576,154.7C624,149,672,203,720,229.3C768,256,816,256,864,240C912,224,960,192,1008,197.3C1056,203,1104,245,1152,234.7C1200,224,1248,160,1296,133.3C1344,107,1392,117,1416,122.7L1440,128L1440,320L1416,320C1392,320,1344,320,1296,320C1248,320,1200,320,1152,320C1104,320,1056,320,1008,320C960,320,912,320,864,320C816,320,768,320,720,320C672,320,624,320,576,320C528,320,480,320,432,320C384,320,336,320,288,320C240,320,192,320,144,320C96,320,48,320,24,320L0,320Z"></path></svg>